<?xml version="1.0" standalone="no"?>
<!DOCTYPE svg PUBLIC "-//W3C//DTD SVG 20010904//EN"
 "http://www.w3.org/TR/2001/REC-SVG-20010904/DTD/svg10.dtd">
<svg version="1.0" xmlns="http://www.w3.org/2000/svg"
 width="1024.000000pt" height="1024.000000pt" viewBox="0 0 1024.000000 1024.000000"
 preserveAspectRatio="xMidYMid meet">

<g transform="translate(0.000000,1024.000000) scale(0.100000,-0.100000)"
fill="#000000" stroke="none">
<path d="M7467 7912 c-16 -52 -17 -109 -17 -620 0 -533 -1 -562 -18 -551 -9 6
-30 29 -46 51 -105 146 -499 497 -611 544 -37 15 -38 15 -25 -1 8 -10 89 -82
180 -160 91 -78 217 -196 281 -261 106 -110 208 -236 213 -267 1 -6 7 -22 14
-34 9 -16 12 -110 12 -337 l0 -316 35 22 35 23 1 320 c3 1304 -3 1623 -30
1639 -3 2 -14 -21 -24 -52z"/>
<path d="M6248 7813 c7 -3 16 -2 19 1 4 3 -2 6 -13 5 -11 0 -14 -3 -6 -6z"/>
<path d="M6222 7780 c0 -14 2 -19 5 -12 2 6 2 18 0 25 -3 6 -5 1 -5 -13z"/>
<path d="M8875 7790 c3 -5 8 -10 11 -10 2 0 4 5 4 10 0 6 -5 10 -11 10 -5 0
-7 -4 -4 -10z"/>
<path d="M8768 7763 c7 -3 16 -2 19 1 4 3 -2 6 -13 5 -11 0 -14 -3 -6 -6z"/>
<path d="M8698 7743 c7 -3 16 -2 19 1 4 3 -2 6 -13 5 -11 0 -14 -3 -6 -6z"/>
<path d="M8658 7733 c7 -3 16 -2 19 1 4 3 -2 6 -13 5 -11 0 -14 -3 -6 -6z"/>
<path d="M8608 7723 c6 -2 18 -2 25 0 6 3 1 5 -13 5 -14 0 -19 -2 -12 -5z"/>
<path d="M8568 7713 c7 -3 16 -2 19 1 4 3 -2 6 -13 5 -11 0 -14 -3 -6 -6z"/>
<path d="M8528 7703 c7 -3 16 -2 19 1 4 3 -2 6 -13 5 -11 0 -14 -3 -6 -6z"/>
<path d="M6620 7675 c14 -8 30 -14 35 -14 6 0 -1 6 -15 14 -14 8 -29 14 -35
14 -5 0 1 -6 15 -14z"/>
<path d="M6690 7646 c0 -3 14 -12 30 -21 17 -9 30 -13 30 -11 0 3 -13 12 -30
21 -16 9 -30 13 -30 11z"/>
<path d="M8290 7630 c-8 -5 -10 -10 -5 -10 6 0 17 5 25 10 8 5 11 10 5 10 -5
0 -17 -5 -25 -10z"/>
<path d="M8816 7595 c-9 -26 -7 -32 5 -12 6 10 9 21 6 23 -2 3 -7 -2 -11 -11z"/>
<path d="M8168 7574 c-27 -13 -48 -27 -48 -29 0 -3 23 6 50 20 28 14 50 28 50
30 0 7 1 7 -52 -21z"/>
<path d="M8796 7545 c-9 -26 -7 -32 5 -12 6 10 9 21 6 23 -2 3 -7 -2 -11 -11z"/>
<path d="M6300 7525 c0 -5 5 -17 10 -25 5 -8 10 -10 10 -5 0 6 -5 17 -10 25
-5 8 -10 11 -10 5z"/>
<path d="M6920 7506 c0 -2 8 -10 18 -17 15 -13 16 -12 3 4 -13 16 -21 21 -21
13z"/>
<path d="M8009 7473 c-13 -16 -12 -17 4 -4 9 7 17 15 17 17 0 8 -8 3 -21 -13z"/>
<path d="M6975 7460 c10 -11 20 -20 23 -20 3 0 -3 9 -13 20 -10 11 -20 20 -23
20 -3 0 3 -9 13 -20z"/>
<path d="M6330 7455 c0 -5 5 -17 10 -25 5 -8 10 -10 10 -5 0 6 -5 17 -10 25
-5 8 -10 11 -10 5z"/>
<path d="M7905 7378 l-70 -73 73 70 c67 64 77 75 69 75 -1 0 -34 -33 -72 -72z"/>
<path d="M7070 7378 c41 -45 50 -53 50 -45 0 2 -21 23 -47 47 l-48 45 45 -47z"/>
<path d="M8705 7360 c-9 -16 -13 -30 -11 -30 3 0 12 14 21 30 9 17 13 30 11
30 -3 0 -12 -13 -21 -30z"/>
<path d="M6390 7330 c6 -11 13 -20 16 -20 2 0 0 9 -6 20 -6 11 -13 20 -16 20
-2 0 0 -9 6 -20z"/>
<path d="M7145 7290 c10 -11 20 -20 23 -20 3 0 -3 9 -13 20 -10 11 -20 20 -23
20 -3 0 3 -9 13 -20z"/>
<path d="M8144 7249 c-163 -106 -331 -245 -500 -410 -85 -84 -100 -103 -96
-124 2 -14 7 -25 11 -25 3 0 28 27 55 61 68 84 324 311 587 521 54 43 28 32
-57 -23z"/>
<path d="M7809 7273 c-13 -16 -12 -17 4 -4 9 7 17 15 17 17 0 8 -8 3 -21 -13z"/>
<path d="M8629 7243 c-13 -16 -12 -17 4 -4 9 7 17 15 17 17 0 8 -8 3 -21 -13z"/>
<path d="M7779 7233 c-13 -16 -12 -17 4 -4 9 7 17 15 17 17 0 8 -8 3 -21 -13z"/>
<path d="M7200 7216 c0 -2 8 -10 18 -17 15 -13 16 -12 3 4 -13 16 -21 21 -21
13z"/>
<path d="M8599 7203 c-13 -16 -12 -17 4 -4 9 7 17 15 17 17 0 8 -8 3 -21 -13z"/>
<path d="M6480 7186 c0 -2 8 -10 18 -17 15 -13 16 -12 3 4 -13 16 -21 21 -21
13z"/>
<path d="M7730 7160 c-6 -11 -8 -20 -6 -20 3 0 10 9 16 20 6 11 8 20 6 20 -3
0 -10 -9 -16 -20z"/>
<path d="M8505 7098 l-80 -83 83 80 c45 44 82 81 82 82 0 8 -11 -3 -85 -79z"/>
<path d="M6565 7090 c33 -33 62 -60 64 -60 3 0 -21 27 -54 60 -33 33 -62 60
-64 60 -3 0 21 -27 54 -60z"/>
<path d="M7700 7110 c-6 -11 -8 -20 -6 -20 3 0 10 9 16 20 6 11 8 20 6 20 -3
0 -10 -9 -16 -20z"/>
<path d="M7660 7039 c-7 -11 -10 -23 -7 -25 2 -2 9 7 15 21 14 30 7 33 -8 4z"/>
<path d="M6654 7012 c8 -13 66 -56 66 -49 0 3 -17 17 -37 33 -20 15 -33 23
-29 16z"/>
<path d="M8389 6993 c-13 -16 -12 -17 4 -4 16 13 21 21 13 21 -2 0 -10 -8 -17
-17z"/>
<path d="M7351 6955 c0 -5 6 -21 14 -35 8 -14 14 -20 14 -15 0 6 -6 21 -14 35
-8 14 -14 21 -14 15z"/>
<path d="M7612 6935 c-17 -37 -14 -45 4 -12 9 16 14 31 11 33 -2 2 -9 -7 -15
-21z"/>
<path d="M7380 6885 c0 -5 5 -17 10 -25 5 -8 10 -10 10 -5 0 6 -5 17 -10 25
-5 8 -10 11 -10 5z"/>
<path d="M8194 6864 c-18 -14 -18 -15 4 -4 12 6 22 13 22 15 0 8 -5 6 -26 -11z"/>
<path d="M6930 6840 c8 -5 20 -10 25 -10 6 0 3 5 -5 10 -8 5 -19 10 -25 10 -5
0 -3 -5 5 -10z"/>
<path d="M8145 6840 c-3 -6 1 -7 9 -4 18 7 21 14 7 14 -6 0 -13 -4 -16 -10z"/>
<path d="M7566 6825 c-9 -26 -7 -32 5 -12 6 10 9 21 6 23 -2 3 -7 -2 -11 -11z"/>
<path d="M8060 6800 c-8 -5 -10 -10 -5 -10 6 0 17 5 25 10 8 5 11 10 5 10 -5
0 -17 -5 -25 -10z"/>
<path d="M7990 6770 c-8 -5 -10 -10 -5 -10 6 0 17 5 25 10 8 5 11 10 5 10 -5
0 -17 -5 -25 -10z"/>
<path d="M7190 6730 c8 -5 20 -10 25 -10 6 0 3 5 -5 10 -8 5 -19 10 -25 10 -5
0 -3 -5 5 -10z"/>
<path d="M3885 6615 c-16 -9 -55 -42 -85 -74 l-55 -58 -92 -7 c-251 -18 -454
-129 -577 -314 -49 -74 -86 -172 -86 -227 0 -19 -3 -35 -7 -35 -5 0 -21 19
-37 41 -21 31 -31 37 -37 27 -10 -16 -3 -68 18 -126 12 -35 13 -51 3 -93 -33
-139 50 -339 193 -462 121 -104 158 -141 201 -201 56 -77 91 -110 110 -103 9
4 36 47 61 96 l45 91 -27 5 c-129 26 -190 66 -229 150 -28 60 -30 98 -6 144
26 51 74 73 147 67 33 -2 69 -6 79 -8 15 -2 27 9 45 42 24 41 26 55 26 160 0
99 -4 122 -24 168 -13 29 -34 61 -47 71 -23 18 -23 18 65 25 208 16 381 59
474 118 151 96 170 314 40 444 -40 40 -105 73 -143 74 -14 0 -38 -7 -55 -15z"/>
<path d="M4119 6017 c-38 -26 -47 -63 -14 -60 11 1 37 9 58 18 37 15 38 17 25
37 -21 31 -30 31 -69 5z"/>
<path d="M3857 5890 c-48 -30 -70 -71 -49 -92 8 -8 23 0 54 28 24 21 54 46 67
55 26 17 22 39 -8 39 -9 0 -38 -13 -64 -30z"/>
<path d="M4187 5853 c-14 -13 -6 -61 12 -84 18 -22 21 -22 35 -9 13 12 14 23
6 50 -12 41 -36 61 -53 43z"/>
<path d="M3927 5743 c-15 -14 -6 -70 13 -88 22 -19 50 -14 50 10 0 49 -41 100
-63 78z"/>
<path d="M4150 5736 c0 -8 164 -106 177 -106 21 0 16 -12 -32 -72 -49 -63 -52
-68 -31 -68 21 0 116 123 116 150 0 5 -7 10 -15 10 -9 0 -59 20 -112 45 -99
47 -103 48 -103 41z"/>
<path d="M4054 5369 c-7 -12 54 -48 93 -55 37 -7 63 0 97 27 38 30 32 40 -11
18 -45 -23 -54 -23 -121 0 -29 10 -55 14 -58 10z"/>
<path d="M3130 4750 c-8 -5 -10 -10 -5 -10 6 0 17 5 25 10 8 5 11 10 5 10 -5
0 -17 -5 -25 -10z"/>
<path d="M4068 4753 c6 -2 18 -2 25 0 6 3 1 5 -13 5 -14 0 -19 -2 -12 -5z"/>
<path d="M4128 4743 c6 -2 18 -2 25 0 6 3 1 5 -13 5 -14 0 -19 -2 -12 -5z"/>
<path d="M4188 4733 c7 -3 16 -2 19 1 4 3 -2 6 -13 5 -11 0 -14 -3 -6 -6z"/>
<path d="M2970 4690 c-8 -5 -10 -10 -5 -10 6 0 17 5 25 10 8 5 11 10 5 10 -5
0 -17 -5 -25 -10z"/>
<path d="M2920 4670 c-8 -5 -10 -10 -5 -10 6 0 17 5 25 10 8 5 11 10 5 10 -5
0 -17 -5 -25 -10z"/>
<path d="M4390 4670 c8 -5 20 -10 25 -10 6 0 3 5 -5 10 -8 5 -19 10 -25 10 -5
0 -3 -5 5 -10z"/>
<path d="M2850 4640 c-8 -5 -10 -10 -5 -10 6 0 17 5 25 10 8 5 11 10 5 10 -5
0 -17 -5 -25 -10z"/>
<path d="M4470 4636 c0 -3 9 -10 20 -16 11 -6 20 -8 20 -6 0 3 -9 10 -20 16
-11 6 -20 8 -20 6z"/>
<path d="M2764 4594 c-18 -14 -18 -15 4 -4 12 6 22 13 22 15 0 8 -5 6 -26 -11z"/>
<path d="M4520 4607 c0 -3 12 -12 26 -22 15 -9 23 -12 20 -6 -7 11 -46 35 -46
28z"/>
<path d="M2709 4559 l-24 -20 28 17 c15 9 27 18 27 20 0 8 -8 4 -31 -17z"/>
<path d="M4580 4566 c0 -2 8 -10 18 -17 15 -13 16 -12 3 4 -13 16 -21 21 -21
13z"/>
<path d="M2659 4523 c-13 -16 -12 -17 4 -4 9 7 17 15 17 17 0 8 -8 3 -21 -13z"/>
<path d="M4680 4475 c35 -36 67 -65 69 -65 3 0 -24 29 -59 65 -35 36 -67 65
-69 65 -3 0 24 -29 59 -65z"/>
<path d="M2575 4448 l-50 -53 53 50 c48 46 57 55 49 55 -1 0 -25 -24 -52 -52z"/>
<path d="M4780 4365 c19 -19 36 -35 39 -35 3 0 -10 16 -29 35 -19 19 -36 35
-39 35 -3 0 10 -16 29 -35z"/>
<path d="M2494 4358 l-19 -23 23 19 c21 18 27 26 19 26 -2 0 -12 -10 -23 -22z"/>
<path d="M2454 4308 l-19 -23 23 19 c21 18 27 26 19 26 -2 0 -12 -10 -23 -22z"/>
<path d="M4840 4295 c13 -14 26 -25 28 -25 3 0 -5 11 -18 25 -13 14 -26 25
-28 25 -3 0 5 -11 18 -25z"/>
<path d="M4485 4258 c-2 -7 -9 -53 -15 -103 -13 -106 -55 -358 -76 -458 l-15
-71 34 -34 34 -34 7 84 c19 221 25 315 32 458 3 85 8 158 11 163 2 4 2 7 -2 7
-3 0 -7 -6 -10 -12z"/>
<path d="M4885 4240 c10 -11 20 -20 23 -20 3 0 -3 9 -13 20 -10 11 -20 20 -23
20 -3 0 3 -9 13 -20z"/>
<path d="M2399 4233 c-13 -16 -12 -17 4 -4 9 7 17 15 17 17 0 8 -8 3 -21 -13z"/>
<path d="M4910 4206 c0 -2 8 -10 18 -17 15 -13 16 -12 3 4 -13 16 -21 21 -21
13z"/>
<path d="M4950 4156 c0 -2 8 -10 18 -17 15 -13 16 -12 3 4 -13 16 -21 21 -21
13z"/>
<path d="M4980 4116 c0 -2 8 -10 18 -17 15 -13 16 -12 3 4 -13 16 -21 21 -21
13z"/>
<path d="M5010 4076 c0 -2 8 -10 18 -17 15 -13 16 -12 3 4 -13 16 -21 21 -21
13z"/>
<path d="M5040 4036 c0 -2 8 -10 18 -17 15 -13 16 -12 3 4 -13 16 -21 21 -21
13z"/>
<path d="M5070 3996 c0 -2 8 -10 18 -17 15 -13 16 -12 3 4 -13 16 -21 21 -21
13z"/>
<path d="M5120 3930 c12 -16 24 -30 26 -30 3 0 -4 14 -16 30 -12 17 -24 30
-26 30 -3 0 4 -13 16 -30z"/>
<path d="M3055 3843 c-112 -206 -345 -643 -374 -701 l-31 -62 -41 21 c-23 11
-43 18 -46 16 -16 -17 -107 -448 -100 -475 4 -13 5 -12 6 4 0 12 19 38 41 58
22 20 34 36 27 36 -7 0 -18 -3 -23 -7 -6 -5 24 26 66 67 131 127 179 220 365
705 68 176 133 342 144 369 35 80 17 63 -34 -31z"/>
<path d="M2170 3880 c-6 -11 -8 -20 -6 -20 3 0 10 9 16 20 6 11 8 20 6 20 -3
0 -10 -9 -16 -20z"/>
<path d="M5153 3875 c0 -8 4 -12 9 -9 5 3 6 10 3 15 -9 13 -12 11 -12 -6z"/>
<path d="M2135 3820 c-9 -16 -13 -30 -11 -30 3 0 12 14 21 30 9 17 13 30 11
30 -3 0 -12 -13 -21 -30z"/>
<path d="M2100 3760 c-6 -11 -8 -20 -6 -20 3 0 10 9 16 20 6 11 8 20 6 20 -3
0 -10 -9 -16 -20z"/>
<path d="M4361 3594 c0 -11 3 -14 6 -6 3 7 2 16 -1 19 -3 4 -6 -2 -5 -13z"/>
<path d="M4351 3554 c0 -11 3 -14 6 -6 3 7 2 16 -1 19 -3 4 -6 -2 -5 -13z"/>
<path d="M4466 3547 c3 -10 9 -15 12 -12 3 3 0 11 -7 18 -10 9 -11 8 -5 -6z"/>
<path d="M4341 3514 c0 -11 3 -14 6 -6 3 7 2 16 -1 19 -3 4 -6 -2 -5 -13z"/>
<path d="M4550 3455 c35 -36 67 -65 69 -65 3 0 -24 29 -59 65 -35 36 -67 65
-69 65 -3 0 24 -29 59 -65z"/>
<path d="M4311 3404 c0 -11 3 -14 6 -6 3 7 2 16 -1 19 -3 4 -6 -2 -5 -13z"/>
<path d="M4301 3364 c0 -11 3 -14 6 -6 3 7 2 16 -1 19 -3 4 -6 -2 -5 -13z"/>
<path d="M4266 3254 c-4 -14 -5 -28 -3 -31 3 -2 8 8 11 23 4 14 5 28 3 31 -3
2 -8 -8 -11 -23z"/>
<path d="M5319 3161 c-169 -99 -653 -290 -900 -356 l-67 -17 -58 -112 c-120
-230 -135 -263 -154 -346 -37 -160 -48 -188 -86 -216 -46 -36 -82 -35 -232 6
-109 29 -125 36 -134 59 -13 34 -3 227 16 306 8 33 13 61 12 62 -2 2 -72 -27
-157 -63 -465 -201 -725 -248 -1038 -189 -46 9 -84 15 -86 13 -11 -14 -28
-147 -32 -253 -10 -233 39 -389 159 -509 l63 -63 -110 -73 c-60 -40 -184 -125
-276 -188 l-165 -116 -1 -102 -1 -101 296 -7 c164 -3 340 -7 392 -8 52 -1 100
-5 105 -9 19 -14 717 -61 1190 -80 575 -22 710 -2 853 126 102 92 152 247 123
387 -35 169 -158 298 -468 492 -51 32 -90 62 -88 67 8 13 563 429 572 429 4 0
23 -40 41 -88 151 -402 358 -922 368 -922 17 0 25 -59 13 -105 -5 -22 -12
-113 -16 -201 l-6 -162 437 -7 c241 -4 476 -5 524 -1 48 3 162 6 255 6 152 0
167 2 167 18 0 33 -47 118 -81 147 -32 27 -498 259 -641 320 l-68 28 0 44 c0
36 4 45 23 52 l24 9 -32 124 c-318 1218 -356 1343 -454 1472 -30 39 -74 79
-124 113 -43 29 -81 53 -85 53 -4 0 -37 -18 -73 -39z"/>
<path d="M2452 2600 c0 -14 2 -19 5 -12 2 6 2 18 0 25 -3 6 -5 1 -5 -13z"/>
<path d="M2442 2540 c0 -14 2 -19 5 -12 2 6 2 18 0 25 -3 6 -5 1 -5 -13z"/>
<path d="M2431 2484 c0 -11 3 -14 6 -6 3 7 2 16 -1 19 -3 4 -6 -2 -5 -13z"/>
<path d="M2421 2424 c0 -11 3 -14 6 -6 3 7 2 16 -1 19 -3 4 -6 -2 -5 -13z"/>
<path d="M2411 2364 c0 -11 3 -14 6 -6 3 7 2 16 -1 19 -3 4 -6 -2 -5 -13z"/>
</g>
</svg>
